HIERARCHY
ROOT Hips
{
	OFFSET 0.000000 0.000000 0.000000
	CHANNELS 6 Xposition Yposition Zposition Zrotation Xrotation Yrotation
	JOINT Spine1
	{
		OFFSET 0.000000 -0.000016 97.193146
		CHANNELS 6 Xposition Yposition Zposition Zrotation Xrotation Yrotation
		JOINT Neck
		{
			OFFSET 0.000000 -0.000013 77.485802
			CHANNELS 6 Xposition Yposition Zposition Zrotation Xrotation Yrotation
			JOINT Head
			{
				OFFSET 0.000000 -6.357267 49.268803
				CHANNELS 6 Xposition Yposition Zposition Zrotation Xrotation Yrotation
				End Site
				{
					OFFSET 0.000000 -0.000010 63.572445
				}
			}
		}
		JOINT LeftShoulder
		{
			OFFSET 12.801845 1.680424 62.565639
			CHANNELS 6 Xposition Yposition Zposition Zrotation Xrotation Yrotation
			JOINT LeftArm
			{
				OFFSET 45.680595 0.000000 0.000000
				CHANNELS 6 Xposition Yposition Zposition Zrotation Xrotation Yrotation
				JOINT LeftForeArm
				{
					OFFSET 89.572342 0.000000 0.000000
					CHANNELS 6 Xposition Yposition Zposition Zrotation Xrotation Yrotation
					JOINT LeftHand
					{
						OFFSET 83.245735 0.000000 0.000000
						CHANNELS 6 Xposition Yposition Zposition Zrotation Xrotation Yrotation
						End Site
						{
							OFFSET 47.679340 0.000000 0.000000
						}
					}
				}
			}
		}
		JOINT RightShoulder
		{
			OFFSET -12.625236 1.680424 62.565639
			CHANNELS 6 Xposition Yposition Zposition Zrotation Xrotation Yrotation
			JOINT RightArm
			{
				OFFSET -45.680595 0.000000 0.000000
				CHANNELS 6 Xposition Yposition Zposition Zrotation Xrotation Yrotation
				JOINT RightForeArm
				{
					OFFSET -89.572350 0.000000 0.000000
					CHANNELS 6 Xposition Yposition Zposition Zrotation Xrotation Yrotation
					JOINT RightHand
					{
						OFFSET -83.245758 0.000000 0.000000
						CHANNELS 6 Xposition Yposition Zposition Zrotation Xrotation Yrotation
						End Site
						{
							OFFSET -47.679340 0.000000 0.000000
						}
					}
				}
			}
		}
	}
	JOINT LeftUpLeg
	{
		OFFSET 31.786301 0.000000 0.000000
		CHANNELS 6 Xposition Yposition Zposition Zrotation Xrotation Yrotation
		JOINT LeftLeg
		{
			OFFSET 0.000000 0.000022 -133.682144
			CHANNELS 6 Xposition Yposition Zposition Zrotation Xrotation Yrotation
			JOINT LeftFoot
			{
				OFFSET 0.000000 0.000023 -140.150513
				CHANNELS 6 Xposition Yposition Zposition Zrotation Xrotation Yrotation
				JOINT LeftToeBase
				{
					OFFSET 0.000000 -47.679440 -20.661087
					CHANNELS 6 Xposition Yposition Zposition Zrotation Xrotation Yrotation
					End Site
					{
						OFFSET 0.000000 -12.714491 0.000000
					}
				}
			}
		}
	}
	JOINT RightUpLeg
	{
		OFFSET -31.786301 0.000000 0.000000
		CHANNELS 6 Xposition Yposition Zposition Zrotation Xrotation Yrotation
		JOINT RightLeg
		{
			OFFSET 0.000000 0.000022 -133.682144
			CHANNELS 6 Xposition Yposition Zposition Zrotation Xrotation Yrotation
			JOINT RightFoot
			{
				OFFSET 0.000000 0.000023 -140.150513
				CHANNELS 6 Xposition Yposition Zposition Zrotation Xrotation Yrotation
				JOINT RightToeBase
				{
					OFFSET 0.000000 -47.679440 -20.661087
					CHANNELS 6 Xposition Yposition Zposition Zrotation Xrotation Yrotation
					End Site
					{
						OFFSET 0.000000 -12.714491 0.000000
					}
				}
			}
		}
	}
}
MOTION
Frames: 10
Frame Time: 0.016667
39.778526 5.493276 261.354614 -4.092173 10.452165 -3.893384 -0.000005 -0.000012 97.193115 4.089726 -5.586029 -3.872967 0.000000 -0.000011 77.485771 -3.889884 6.574878 1.315639 -0.000003 -6.357257 49.268875 -4.005204 17.929358 -7.220234 12.801838 1.680425 62.565575 -0.111475 -7.751437 -18.326127 45.680607 0.000004 0.000009 -19.761231 7.262732 21.310745 89.572334 -0.000010 0.000037 -42.384848 3.319243 -32.266486 83.245750 -0.000026 0.000047 3.443353 -10.451271 -30.073268 -12.625226 1.680426 62.565636 2.681215 -5.822459 13.573334 -45.680607 -0.000008 -0.000006 58.236857 -0.584723 -54.625387 -89.572350 -0.000000 0.000005 112.785971 6.439816 33.646396 -83.245758 0.000019 -0.000026 -2.687520 -44.608689 6.069225 31.786297 0.000004 -0.000018 22.322882 -29.068670 -10.080093 -0.000001 0.000026 -133.682114 12.001822 38.539192 7.804512 0.000001 0.000027 -140.150482 18.185309 -7.730232 3.308835 0.000006 -47.679440 -20.661087 0.000002 -0.000001 0.000003 -31.786303 0.000006 -0.000012 8.062556 -21.376981 38.476501 0.000011 0.000025 -133.682144 -26.749751 29.958251 -16.868407 0.000010 0.000016 -140.150513 -27.986932 1.209731 -8.127549 -0.000003 -47.679440 -20.661089 0.000000 0.000001 0.000000 
39.725636 5.585805 261.372375 -4.038205 10.391567 -3.849721 -0.000003 -0.000020 97.193123 4.274524 -5.449741 -3.816592 -0.000002 -0.000017 77.485748 -4.296151 6.685688 1.342605 -0.000002 -6.357264 49.268757 -4.384209 18.528826 -7.677020 12.801840 1.680419 62.565582 -0.216759 -7.732400 -18.210080 45.680592 0.000008 -0.000033 -20.183289 7.275538 21.504740 89.572327 -0.000012 -0.000040 -42.968614 3.936244 -32.745320 83.245712 -0.000002 0.000041 3.175193 -10.189763 -30.751175 -12.625236 1.680422 62.565609 2.798169 -5.795285 13.455065 -45.680603 -0.000005 -0.000014 59.762810 -0.104083 -54.866363 -89.572311 0.000004 -0.000002 113.022494 5.759420 33.960780 -83.245728 -0.000024 -0.000018 -1.190199 -45.721730 8.014012 31.786295 -0.000007 -0.000017 22.245451 -29.065546 -10.150109 -0.000012 0.000027 -133.682144 11.963228 38.534770 7.807870 -0.000003 0.000024 -140.150467 18.203977 -7.713997 3.337461 0.000004 -47.679440 -20.661085 -0.000003 -0.000002 0.000001 -31.786303 -0.000008 -0.000013 8.724858 -20.627781 38.684142 -0.000005 0.000024 -133.682144 -27.488153 29.724772 -17.130606 0.000013 0.000018 -140.150513 -28.173533 1.192400 -8.015977 0.000003 -47.679436 -20.661087 -0.000001 -0.000000 0.000000 
39.663437 5.711499 261.391388 -3.972313 10.346849 -3.781226 -0.000008 -0.000013 97.193146 4.415001 -5.279819 -3.767561 0.000012 -0.000011 77.485771 -4.694574 6.747604 1.370454 -0.000002 -6.357264 49.268898 -4.754290 19.095619 -8.118985 12.801853 1.680423 62.565609 -0.285063 -7.770088 -18.132503 45.680580 -0.000001 -0.000006 -20.594434 7.348998 21.757843 89.572357 0.000007 0.000029 -43.505850 4.648397 -33.318042 83.245735 0.000022 -0.000001 3.055972 -9.896450 -31.162250 -12.625218 1.680428 62.565666 2.953425 -5.821225 13.378980 -45.680607 -0.000011 0.000005 60.806148 0.422449 -55.294879 -89.572281 -0.000007 -0.000011 114.001444 4.450296 33.772202 -83.245758 0.000013 0.000010 -2.896793 -47.255781 5.275479 31.786297 0.000003 -0.000008 22.160706 -29.105116 -10.233719 0.000015 0.000026 -133.682144 11.849182 38.538209 7.849351 -0.000004 0.000020 -140.150436 18.266274 -7.706415 3.319813 0.000013 -47.679447 -20.661087 -0.000002 0.000000 -0.000001 -31.786310 0.000001 -0.000011 8.641007 -20.598244 38.566912 0.000011 0.000023 -133.682159 -27.554872 29.709752 -17.086746 0.000005 0.000020 -140.150513 -28.144269 1.219539 -8.026020 -0.000000 -47.679440 -20.661089 -0.000001 0.000000 -0.000001 
39.610912 5.820195 261.392914 -3.896436 10.284160 -3.725430 0.000001 -0.000016 97.193169 4.575408 -5.123238 -3.710174 -0.000003 -0.000011 77.485840 -5.089239 6.869121 1.428522 0.000003 -6.357245 49.268806 -5.118109 19.595155 -8.634032 12.801835 1.680427 62.565662 -0.405424 -7.751120 -18.044209 45.680584 0.000006 -0.000045 -20.915146 7.363931 21.999681 89.572350 -0.000010 0.000022 -44.230447 5.285334 -33.849509 83.245689 -0.000012 -0.000025 2.813020 -9.700686 -31.674886 -12.625238 1.680427 62.565655 3.081509 -5.822978 13.281658 -45.680603 -0.000019 -0.000049 61.940014 0.990444 -55.581962 -89.572334 -0.000011 -0.000021 114.736209 3.249400 33.682108 -83.245789 0.000027 -0.000008 -3.284035 -48.578720 4.406173 31.786297 0.000000 -0.000005 22.134685 -29.141060 -10.279708 -0.000001 0.000028 -133.682144 11.829166 38.562999 7.794405 -0.000014 0.000033 -140.150513 18.215536 -7.696273 3.319434 0.000012 -47.679436 -20.661087 -0.000000 0.000001 -0.000001 -31.786297 0.000000 0.000011 8.273008 -20.811385 38.380124 -0.000013 0.000025 -133.682114 -27.335800 29.804463 -16.979596 -0.000003 0.000030 -140.150528 -28.028957 1.252496 -8.062597 0.000003 -47.679440 -20.661110 0.000004 0.000000 -0.000001 
39.576832 5.933095 261.392609 -3.817633 10.243884 -3.672493 -0.000003 -0.000020 97.193123 4.719863 -4.981663 -3.639081 0.000004 -0.000011 77.485786 -5.495369 6.955374 1.426704 -0.000000 -6.357247 49.268776 -5.490342 20.130791 -9.014484 12.801851 1.680425 62.565613 -0.512696 -7.768085 -17.952729 45.680607 0.000000 0.000021 -21.207251 7.342666 22.250615 89.572334 0.000005 -0.000016 -44.899355 6.043060 -34.339603 83.245705 0.000011 -0.000035 2.579527 -9.354990 -32.107271 -12.625229 1.680422 62.565601 3.254804 -5.867475 13.223641 -45.680607 -0.000018 0.000005 63.271116 1.639050 -55.854774 -89.572327 -0.000013 0.000023 115.570940 1.834799 33.522712 -83.245811 -0.000011 -0.000002 -2.846355 -50.015163 5.403850 31.786301 0.000001 -0.000026 22.055924 -29.178309 -10.342628 -0.000011 0.000030 -133.682159 11.749026 38.570348 7.820812 -0.000009 0.000039 -140.150497 18.243276 -7.701242 3.302548 0.000003 -47.679424 -20.661085 0.000002 -0.000001 0.000000 -31.786303 -0.000005 -0.000029 8.512233 -20.463402 38.428745 -0.000005 0.000021 -133.682144 -27.698493 29.695801 -17.098223 0.000005 0.000023 -140.150513 -28.097093 1.256429 -8.025430 0.000003 -47.679440 -20.661106 -0.000004 0.000000 0.000002 
39.538002 6.053504 261.383484 -3.735900 10.223788 -3.599341 -0.000005 -0.000014 97.193115 4.889708 -4.808724 -3.584237 0.000008 -0.000017 77.485817 -5.944469 7.042752 1.355286 0.000007 -6.357264 49.268848 -5.912511 20.549128 -9.318608 12.801855 1.680425 62.565670 -0.654703 -7.758827 -17.899284 45.680595 -0.000004 0.000015 -21.508003 7.348050 22.497721 89.572327 -0.000011 -0.000008 -45.550535 6.795911 -34.935711 83.245728 -0.000013 0.000018 2.535243 -9.110374 -32.230498 -12.625225 1.680424 62.565666 3.352978 -5.885722 13.155096 -45.680595 -0.000008 -0.000058 64.642843 2.555827 -56.183162 -89.572273 -0.000004 0.000022 115.705126 1.455853 33.952194 -83.245781 -0.000024 0.000000 -3.882719 -50.962569 2.557364 31.786297 0.000005 0.000010 21.960742 -29.256934 -10.428812 0.000015 0.000018 -133.682144 11.711629 38.606224 7.827458 0.000009 0.000014 -140.150497 18.239808 -7.707191 3.287502 -0.000008 -47.679440 -20.661085 -0.000002 -0.000001 -0.000002 -31.786301 0.000001 -0.000009 8.171047 -20.656203 38.262860 0.000006 0.000023 -133.682144 -27.439474 29.731960 -17.099370 0.000008 0.000019 -140.150513 -28.066562 1.294648 -8.054500 -0.000003 -47.679424 -20.661087 -0.000000 -0.000000 -0.000001 
39.515202 6.160807 261.369537 -3.652443 10.184459 -3.523475 0.000002 -0.000019 97.193146 5.015229 -4.633706 -3.528903 -0.000005 -0.000015 77.485802 -6.337226 7.098087 1.331740 -0.000002 -6.357224 49.268742 -6.270274 21.025277 -9.668080 12.801836 1.680417 62.565628 -0.802613 -7.774147 -17.806525 45.680557 -0.000003 0.000007 -21.726354 7.398154 22.758257 89.572342 0.000003 0.000083 -46.255264 7.597661 -35.565806 83.245728 0.000027 0.000008 2.457811 -8.853373 -32.329194 -12.625245 1.680420 62.565655 3.556740 -5.874439 13.104311 -45.680607 -0.000010 0.000026 65.945176 3.441439 -56.426088 -89.572357 -0.000006 0.000020 116.257620 0.466667 34.086923 -83.245811 -0.000012 0.000030 -4.330523 -52.244230 1.587870 31.786303 0.000001 0.000024 21.868722 -29.314223 -10.520522 -0.000017 0.000018 -133.682159 11.680101 38.636246 7.829289 -0.000015 0.000034 -140.150482 18.215683 -7.723996 3.260222 0.000000 -47.679440 -20.661085 -0.000002 -0.000001 -0.000001 -31.786297 -0.000007 0.000000 8.105894 -20.590628 38.181495 0.000011 0.000027 -133.682175 -27.525574 29.719000 -17.113427 0.000010 0.000022 -140.150513 -28.087789 1.333550 -8.018840 0.000007 -47.679440 -20.661089 0.000002 0.000002 -0.000000 
39.491020 6.281697 261.361542 -3.581332 10.153669 -3.450819 -0.000002 -0.000016 97.193130 5.166996 -4.447225 -3.458848 -0.000007 -0.000017 77.485840 -6.729681 7.129575 1.245177 -0.000005 -6.357240 49.268753 -6.626595 21.473855 -9.967042 12.801842 1.680422 62.565697 -0.916692 -7.785807 -17.725068 45.680595 -0.000002 0.000017 -21.978753 7.403153 23.033594 89.572342 -0.000017 -0.000054 -46.868475 8.465155 -36.231029 83.245689 0.000009 -0.000049 2.344810 -8.514545 -32.490523 -12.625243 1.680423 62.565689 3.675429 -5.803364 13.050826 -45.680595 -0.000014 -0.000040 67.426685 4.390665 -56.605848 -89.572311 -0.000004 0.000068 116.783449 -0.523379 34.350497 -83.245773 0.000029 0.000022 -4.860691 -53.661590 0.597261 31.786297 0.000000 -0.000010 21.812429 -29.382145 -10.592040 -0.000014 0.000021 -133.682144 11.684394 38.670308 7.794864 0.000005 0.000017 -140.150482 18.157981 -7.731661 3.227997 0.000010 -47.679447 -20.661062 -0.000001 -0.000002 -0.000002 -31.786303 0.000002 0.000003 8.076614 -20.523130 38.113395 0.000011 0.000025 -133.682159 -27.596785 29.706173 -17.133028 -0.000000 0.000023 -140.150543 -28.090891 1.348751 -8.088942 -0.000000 -47.679440 -20.661089 -0.000003 0.000001 -0.000000 
39.483139 6.389998 261.343842 -3.524848 10.125850 -3.393566 -0.000002 -0.000017 97.193146 5.336606 -4.252202 -3.370980 0.000009 -0.000015 77.485817 -7.108821 7.157438 1.186755 0.000003 -6.357284 49.268833 -6.967122 21.889341 -10.328918 12.801851 1.680423 62.565636 -1.033989 -7.813148 -17.651398 45.680592 0.000002 -0.000065 -22.318705 7.542572 23.308828 89.572327 0.000009 0.000026 -47.480845 9.200450 -36.989682 83.245728 -0.000033 -0.000044 2.350308 -8.398778 -32.659277 -12.625236 1.680417 62.565617 3.881279 -5.755505 13.019400 -45.680603 -0.000016 0.000008 68.696267 5.396948 -56.825152 -89.572342 0.000002 0.000041 117.248667 -1.540380 34.499811 -83.245781 0.000004 -0.000033 -5.527874 -54.832574 -1.157794 31.786301 -0.000001 0.000008 21.646237 -29.412383 -10.731841 0.000007 0.000026 -133.682175 11.614401 38.698861 7.924821 -0.000000 0.000027 -140.150497 18.229625 -7.754999 3.192588 -0.000008 -47.679447 -20.661089 -0.000005 0.000001 0.000000 -31.786303 -0.000006 -0.000004 8.039918 -20.477546 38.066970 -0.000007 0.000024 -133.682159 -27.675981 29.703482 -17.146918 -0.000008 0.000023 -140.150513 -28.085465 1.408293 -8.017550 -0.000002 -47.679451 -20.661087 0.000000 0.000001 0.000001 
39.470837 6.526965 261.311279 -3.457859 10.092812 -3.313628 0.000006 -0.000016 97.193130 5.506993 -4.009979 -3.288785 0.000004 -0.000014 77.485794 -7.488642 7.154338 1.120084 -0.000005 -6.357247 49.268780 -7.305171 22.287090 -10.724065 12.801846 1.680423 62.565636 -1.179826 -7.843923 -17.572154 45.680576 -0.000006 0.000029 -22.596132 7.457749 23.473186 89.572350 0.000010 0.000034 -48.046727 9.947528 -37.511918 83.245712 -0.000001 -0.000034 2.237172 -8.109917 -32.765387 -12.625229 1.680421 62.565643 4.062552 -5.696140 12.955136 -45.680603 -0.000014 -0.000022 70.032279 6.467853 -57.029252 -89.572311 0.000006 0.000024 117.274389 -1.959431 34.976791 -83.245811 -0.000009 -0.000025 -6.209745 -55.684869 -3.424783 31.786303 0.000000 -0.000007 21.552363 -29.490073 -10.838241 -0.000001 0.000013 -133.682159 11.562627 38.760760 7.956773 -0.000006 0.000022 -140.150513 18.240778 -7.788737 3.157184 0.000003 -47.679447 -20.661110 0.000000 0.000002 -0.000001 -31.786295 0.000003 0.000004 8.067604 -20.373582 38.030346 0.000022 0.000021 -133.682175 -27.859508 29.715448 -17.167610 -0.000006 0.000016 -140.150513 -28.039245 1.437652 -8.022200 -0.000002 -47.679447 -20.661087 -0.000002 0.000000 0.000000 
